<svg width="40" height="25" viewBox="0 0 40 25" fill="none" xmlns="http://www.w3.org/2000/svg">
  <rect width="40" height="25" rx="4" fill="#1A1F71"/>
  <path d="M16.5 17H14L16 8H18.5L16.5 17ZM27.5 8.2C27 8.1 26.2 8 25.2 8C23 8 21.4 9.1 21.4 10.7C21.4 11.9 22.5 12.5 23.4 12.9C24.3 13.3 24.6 13.5 24.6 13.9C24.6 14.5 23.8 14.7 23.1 14.7C22.2 14.7 21.7 14.6 20.9 14.3L20.6 14.2L20.3 16.2C20.9 16.4 22 16.6 23.2 16.6C25.5 16.6 27.1 15.5 27.1 13.8C27.1 12.8 26.4 12.1 25 11.5C24.2 11.1 23.7 10.9 23.7 10.4C23.7 10 24.1 9.6 25 9.6C25.7 9.6 26.3 9.7 26.7 9.9L27 10L27.5 8.2ZM35 8H33C32.4 8 31.9 8.2 31.7 8.7L28.5 17H31C31 17 31.4 15.9 31.5 15.7C31.8 15.7 34.2 15.7 34.6 15.7C34.7 16 34.9 17 34.9 17H37L35 8ZM32.2 13.8C32.4 13.3 33.2 11.2 33.2 11.2C33.2 11.2 33.4 10.7 33.5 10.4L33.6 11.1C33.6 11.1 34.1 13.4 34.2 13.8H32.2ZM12.8 8L10.5 14.1L10.2 12.9C9.7 11.3 8.2 9.6 6.5 8.7L8.6 17H11.1L15 8H12.8Z" fill="white"/>
  <path d="M7.5 8H3.7L3.6 8.2C6.6 8.9 8.6 10.7 9.5 12.9L8.7 8.7C8.5 8.2 8.1 8 7.5 8Z" fill="#F7B600"/>
</svg> 